<svg viewBox="0 0 136 136" xmlns="http://www.w3.org/2000/svg" fill-rule="evenodd" clip-rule="evenodd" stroke-linejoin="round" stroke-miterlimit="2"><path d="M66.4 0h3.2c-.027.44.006.873.1 1.3.219.072.435.139.65.2.148.574.315 1.14.5 1.7.124.137.274.237.45.3.138.268.238.552.3.85.384.234.684.55.9.95-.1.34-.066.673.1 1 .254.093.504.193.75.3.232.475.298.975.2 1.5a.945.945 0 00.15.25c.262.015.495.098.7.25.14.421.224.855.25 1.3l.75 1.15c.1.067.2.067.3 0 .153-.42.436-.703.85-.85.089-.25.205-.483.35-.7.245-.048.462-.148.65-.3.089-.25.205-.483.35-.7.245-.048.462-.148.65-.3.089-.25.205-.483.35-.7.245-.048.462-.148.65-.3.07-.537.37-.837.9-.9a6.77 6.77 0 01.45-.85c.193-.025.377-.075.55-.15.137-.291.287-.575.45-.85.193-.025.377-.075.55-.15.137-.291.287-.575.45-.85.512-.033.796-.317.85-.85a.837.837 0 01.55-.25c.237-.257.437-.54.6-.85a4.52 4.52 0 011.6-.05c.081.609.131 1.225.15 1.85.53.08.83.38.9.9l.1 3c.275.152.541.319.8.5.121 1.095.188 2.195.2 3.3.145.315.395.499.75.55.07.107.12.223.15.35.018 1.058.068 2.108.15 3.15.1.067.2.067.3 0 .133-.267.333-.467.6-.6a3.478 3.478 0 001-.2 8.98 8.98 0 00.5-.75 9.596 9.596 0 001.2-.25c.224-.249.424-.515.6-.8.738.055 1.272-.245 1.6-.9a3.478 3.478 0 011-.2c.27-.256.502-.54.7-.85a7.7 7.7 0 011.1-.15 3.61 3.61 0 00.7-.9c.772.065 1.305-.252 1.6-.95a8.392 8.392 0 012.2-.05c.141.332.207.682.2 1.05a12.807 12.807 0 01-.35 1.9 579.412 579.412 0 01-.15 10.55c.014.123.048.24.1.35a4.795 4.795 0 002.1-.05c.278-.312.578-.579.9-.8l2.4-.1c.175-.047.341-.114.5-.2.189-.28.423-.514.7-.7l2.4-.1a7.896 7.896 0 001.2-.9 22.39 22.39 0 003.4-.3l.4-.6c.371-.122.638-.006.8.35.156.495.106.961-.15 1.4a.577.577 0 01-.55.2 463.9 463.9 0 00-.15 2.9 5.214 5.214 0 01-.85 1.1 39.666 39.666 0 00-.15 2.8.449.449 0 01-.15.2c-.358.021-.608.188-.75.5a30.05 30.05 0 01-.2 3c-.151.384-.434.584-.85.6.028.48-.039.947-.2 1.4.003.153.07.27.2.35 3.967.067 7.933.067 11.9 0a4.111 4.111 0 012-.15c.113.762.13 1.528.05 2.3-.773.36-1.156.977-1.15 1.85-.191.184-.425.3-.7.35a1.09 1.09 0 00-.1 1.05 3.854 3.854 0 01-.25.65c-.246.107-.496.207-.75.3a7.689 7.689 0 00-.3 1.1c-.528.38-.828.896-.9 1.55a3.512 3.512 0 00-.75.55c-.027.473-.094.94-.2 1.4a1.363 1.363 0 01-.85.4l-.25.8a1.03 1.03 0 00-.55.6.725.725 0 00.2.25l2.7.1.3.1c.215.415.549.682 1 .8l2.6.1.3.1c.176.41.476.676.9.8l2.7.1c.335.235.635.502.9.8.717.107 1.434.19 2.15.25a9.975 9.975 0 010 2 4.231 4.231 0 01-.85.15c-.174.22-.29.47-.35.75a2.057 2.057 0 01-.75.3c-.179.275-.346.558-.5.85l-.5.1c-.163.275-.313.559-.45.85a2.042 2.042 0 01-.55.15c-.163.275-.313.559-.45.85-.532.057-.848.357-.95.9a1.088 1.088 0 01-.6.25 1.643 1.643 0 00-.4.75 1.088 1.088 0 01-.6.25 1.643 1.643 0 00-.4.75c-.526.075-.842.375-.95.9a.769.769 0 01-.65.35 1.32 1.32 0 00-.5.7l.7.9 1.3.3c.128.324.328.59.6.8.412.014.812.081 1.2.2.333.717.899 1.05 1.7 1 .329.655.862.955 1.6.9.21.285.443.552.7.8.355.117.721.184 1.1.2l.6.8c.454.138.92.188 1.4.15v3.2a3.755 3.755 0 00-1.4.15 8.932 8.932 0 00-.5.75c-.828-.059-1.428.275-1.8 1-.369.07-.736.153-1.1.25a6.176 6.176 0 01-.8.8 3.475 3.475 0 00-1 .2c-.212.293-.445.56-.7.8-.803-.16-1.337.14-1.6.9l-1.3.3-.7.9c.195.495.545.812 1.05.95.112.275.262.525.45.75.228.023.428.107.6.25.068.287.202.537.4.75.513.046.796.33.85.85.149.15.332.234.55.25.218.286.418.586.6.9.193.025.377.075.55.15.137.291.287.575.45.85.193.025.377.075.55.15l.4.8c.178.074.362.14.55.2.179.275.346.558.5.85l.6.1c.167.304.334.604.5.9.293.022.576.072.85.15a9.975 9.975 0 010 2 32.98 32.98 0 00-2.15.25c-.27.304-.57.57-.9.8l-2.6.1a1.511 1.511 0 00-1 .8l-.3.1-2.6.1a2.296 2.296 0 00-.5.2c-.189.28-.423.514-.7.7l-2.8.1a.468.468 0 00-.2.3c.113.23.279.413.5.55l.3.8c.336.035.619.168.85.4.087.539.187 1.072.3 1.6.257.05.473.167.65.35.106.315.206.632.3.95.236.252.452.519.65.8.039.313.123.613.25.9.807.147 1.107.614.9 1.4-.035.565.232.832.8.8.203.45.353.916.45 1.4.21.277.477.477.8.6.08.772.063 1.538-.05 2.3a.718.718 0 01-.55.2 15.424 15.424 0 01-2.35-.35 301.02 301.02 0 00-11 0l-.15.15c.065.529.148 1.063.25 1.6.377.046.627.246.75.6.117.996.183 1.996.2 3l.15.3c.286.068.536.201.75.4.017.935.067 1.868.15 2.8.282.363.566.729.85 1.1.047.967.097 1.934.15 2.9a.577.577 0 01.55.2c.36.621.31 1.204-.15 1.75-.425.141-.675-.009-.75-.45a.704.704 0 00-.45-.25 53.504 53.504 0 00-3.1-.2 2.812 2.812 0 01-.8-.7 2.301 2.301 0 00-.5-.2l-2.3-.1c-.3-.167-.533-.4-.7-.7a2.301 2.301 0 00-.5-.2l-2.4-.1-.3-.1a1.753 1.753 0 00-.9-.8 5.466 5.466 0 00-1.8.05 1.116 1.116 0 00-.1.35c.065 3.782.132 7.565.2 11.35a.358.358 0 01.15.1 7.212 7.212 0 01-.05 2.05 8.392 8.392 0 01-2.2-.05c-.295-.698-.828-1.015-1.6-.95a5.523 5.523 0 01-.6-.8l-1.3-.3c-.264-.683-.764-.983-1.5-.9a6.309 6.309 0 00-.7-.8 4.592 4.592 0 00-1-.2 5.523 5.523 0 00-.6-.8 4.038 4.038 0 00-1.1-.2.925.925 0 01-.25-.15c-.219-.702-.702-.985-1.45-.85a3.418 3.418 0 01-.5-.6.84.84 0 00-.4-.05c.017 1.067 0 2.134-.05 3.2-.105.363-.355.546-.75.55-.07.107-.12.223-.15.35a61.364 61.364 0 01-.15 3.1l-.1.3a2.69 2.69 0 00-.75.4 41.886 41.886 0 01-.2 3.4c-.23.222-.497.388-.8.5a18.099 18.099 0 01-.15 1.85c-.5.067-1 .067-1.5 0l-.7-.9a.837.837 0 01-.55-.25c-.104-.504-.404-.804-.9-.9l-.4-.8a2.036 2.036 0 00-.55-.15 10.306 10.306 0 01-.45-.85 2.036 2.036 0 00-.55-.15 6.75 6.75 0 01-.45-.85c-.53-.063-.83-.363-.9-.9a1.469 1.469 0 00-.65-.3 3.148 3.148 0 01-.35-.7 1.469 1.469 0 00-.65-.3 3.148 3.148 0 01-.35-.7 1.469 1.469 0 00-.65-.3 3.148 3.148 0 01-.35-.7.705.705 0 00-.45-.25 2.46 2.46 0 00-.55-.65c-.33.366-.63.766-.9 1.2-.026.446-.11.879-.25 1.3a1.27 1.27 0 01-.7.25 1.15 1.15 0 00-.1 1.1c-.057.607-.39.924-1 .95a2.125 2.125 0 00-.2 1.2 1.533 1.533 0 01-.7.6 3.332 3.332 0 00-.3.85 5.159 5.159 0 01-.55.45c-.185.56-.352 1.126-.5 1.7a16.46 16.46 0 00-.65.2c-.094.426-.127.86-.1 1.3h-3.2a4.675 4.675 0 00-.1-1.3 2.331 2.331 0 01-.7-.3 79.066 79.066 0 01-.35-1.4l-.65-.65c-.017-.457-.217-.79-.6-1-.39-.246-.524-.58-.4-1a2.447 2.447 0 00-.2-.65c-.613-.03-.947-.347-1-.95a1.15 1.15 0 00-.1-1.1 1.27 1.27 0 01-.7-.25 5.037 5.037 0 01-.25-1.3l-.75-1.15a.249.249 0 00-.3 0 1.348 1.348 0 01-.85.85c-.054.52-.337.804-.85.85a1.637 1.637 0 00-.4.75 1.09 1.09 0 01-.6.25 1.637 1.637 0 00-.4.75 1.09 1.09 0 01-.6.25 1.637 1.637 0 00-.4.75 1.09 1.09 0 01-.6.25c-.157.23-.273.48-.35.75-.183.157-.4.241-.65.25-.163.275-.313.559-.45.85a2.036 2.036 0 01-.55.15c-.163.275-.313.559-.45.85a2.036 2.036 0 01-.55.15c-.157.23-.273.48-.35.75a.837.837 0 01-.55.25l-.7.9c-.5.067-1 .067-1.5 0a18.099 18.099 0 01-.15-1.85c-.53-.08-.83-.38-.9-.9l-.1-3a2.582 2.582 0 00-.8-.4 36.898 36.898 0 01-.2-3.4c-.145-.315-.395-.498-.75-.55a1.132 1.132 0 01-.15-.35 51.1 51.1 0 00-.15-3.15.249.249 0 00-.3 0 1.305 1.305 0 01-.6.6 3.488 3.488 0 00-1 .2 8.85 8.85 0 00-.5.75 9.543 9.543 0 00-1.2.25 5.523 5.523 0 00-.6.8c-.738-.055-1.271.245-1.6.9a3.488 3.488 0 01-1 .2c-.27.256-.502.539-.7.85a7.758 7.758 0 01-1.1.15 3.618 3.618 0 00-.7.9c-.772-.065-1.305.252-1.6.95a8.392 8.392 0 01-2.2.05 2.535 2.535 0 01-.2-1.05c.084-.672.2-1.339.35-2 .018-3.485.068-6.969.15-10.45a1.124 1.124 0 00-.1-.35 4.785 4.785 0 00-2.1.05 4.967 4.967 0 01-.9.8l-2.4.1a2.303 2.303 0 00-.5.2c-.19.281-.423.514-.7.7l-2.4.1a7.932 7.932 0 00-1.2.9 22.464 22.464 0 00-3.4.3 2.894 2.894 0 00-.4.6c-.371.122-.638.006-.8-.35a1.666 1.666 0 01.15-1.4.577.577 0 01.55-.2c.048-.966.098-1.933.15-2.9.236-.407.52-.773.85-1.1.083-.932.133-1.865.15-2.8a.447.447 0 01.15-.2c.358-.021.608-.188.75-.5.017-1.004.084-2.004.2-3 .15-.384.434-.584.85-.6a3.516 3.516 0 01.2-1.4.396.396 0 00-.2-.35 352.289 352.289 0 00-11.9 0c-.49.105-.973.221-1.45.35a1.377 1.377 0 01-.5-.1 7.616 7.616 0 01-.1-2.4c.321-.12.588-.32.8-.6.097-.484.247-.95.45-1.4.71-.135.943-.551.7-1.25.064-.225.147-.441.25-.65.246-.107.496-.207.75-.3a7.56 7.56 0 00.3-1.1 2.11 2.11 0 00.9-1.55c.272-.148.522-.332.75-.55.027-.473.094-.94.2-1.4a1.69 1.69 0 01.85-.4c.04-.54.29-.94.75-1.2a.425.425 0 000-.4 41.961 41.961 0 00-2.85-.15l-.3-.1a1.51 1.51 0 00-1-.8l-2.6-.1-.3-.1a1.349 1.349 0 00-.9-.8l-2.7-.1a5.201 5.201 0 01-.9-.8 32.94 32.94 0 00-2.15-.25 10.02 10.02 0 010-2c.274-.078.557-.128.85-.15.173-.22.29-.47.35-.75.183-.157.4-.24.65-.25.25-.269.45-.569.6-.9l.5-.1c.163-.275.313-.559.45-.85.173-.075.357-.125.55-.15.163-.275.313-.559.45-.85.532-.057.849-.357.95-.9.172-.143.372-.227.6-.25a1.64 1.64 0 00.4-.75c.172-.143.372-.227.6-.25a1.64 1.64 0 00.4-.75c.172-.143.372-.227.6-.25.188-.225.338-.475.45-.75 1.208-.428 1.325-1.045.35-1.85l-1.3-.3c-.263-.76-.797-1.06-1.6-.9a5.562 5.562 0 01-.7-.8 3.478 3.478 0 00-1-.2 6.17 6.17 0 01-.8-.8c-.364-.097-.731-.18-1.1-.25-.372-.726-.972-1.059-1.8-1a8.98 8.98 0 00-.5-.75A3.755 3.755 0 000 69.6v-3.2c.48.038.946-.012 1.4-.15l.6-.8a4.022 4.022 0 001.1-.2c.257-.248.49-.515.7-.8.341-.03.675-.096 1-.2a6.17 6.17 0 01.8-.8 3.478 3.478 0 001-.2c.212-.294.445-.56.7-.8.803.16 1.337-.14 1.6-.9l1.3-.3c.221-.293.455-.576.7-.85-.124-.474-.424-.758-.9-.85l-.6-.9a1.088 1.088 0 01-.6-.25 1.64 1.64 0 00-.4-.75 1.088 1.088 0 01-.6-.25c-.054-.496-.32-.779-.8-.85l-.25-.25c-.083-.517-.383-.784-.9-.8a10.338 10.338 0 00-.45-.85 2.043 2.043 0 01-.55-.15l-.4-.8a6.668 6.668 0 00-.55-.2 10.78 10.78 0 01-.5-.85l-.6-.1c-.167-.304-.334-.604-.5-.9a4.237 4.237 0 01-.85-.15 10.02 10.02 0 010-2 32.94 32.94 0 002.15-.25c.246-.192.446-.425.6-.7l.3-.1 2.6-.1a1.51 1.51 0 001-.8l.3-.1 2.6-.1c.175-.047.341-.114.5-.2.19-.28.423-.514.7-.7l2.8-.1a.466.466 0 00.2-.3 1.324 1.324 0 00-.5-.55l-.3-.8a3.213 3.213 0 01-.75-.3 10.906 10.906 0 01-.4-1.7 1.208 1.208 0 01-.65-.35 4.107 4.107 0 01-.25-.95 2.23 2.23 0 01-.95-1.7 5.627 5.627 0 00-.7-.25.945.945 0 01-.15-.25 9.37 9.37 0 00-.2-1.5c-.212-.073-.43-.14-.65-.2a43.302 43.302 0 01-.55-1.6 2.214 2.214 0 00-.7-.4 9.155 9.155 0 01.05-2.3.718.718 0 01.55-.2c.762.066 1.546.183 2.35.35 3.667.067 7.333.067 11 0l.15-.15a24.538 24.538 0 00-.25-1.6c-.377-.046-.627-.246-.75-.6a30.14 30.14 0 01-.2-3c-.105-.3-.321-.45-.65-.45l-.25-.25a39.428 39.428 0 00-.15-2.8c-.282-.363-.566-.73-.85-1.1-.047-.967-.097-1.934-.15-2.9a.577.577 0 01-.55-.2c-.36-.62-.31-1.204.15-1.75.425-.141.675.009.75.45.117.14.267.223.45.25 1.031.097 2.065.163 3.1.2.308.18.575.413.8.7.159.086.325.153.5.2l2.3.1c.3.167.533.4.7.7.159.086.325.153.5.2l2.4.1.3.1c.208.375.508.642.9.8a5.456 5.456 0 001.8-.05c.052-.11.086-.227.1-.35a639.634 639.634 0 01-.15-11.05 3.032 3.032 0 01-.15-2.45 8.392 8.392 0 012.2.05c.295.698.828 1.015 1.6.95.224.249.424.515.6.8l1.3.3c.265.683.765.983 1.5.9.21.285.443.552.7.8.325.104.659.17 1 .2.176.285.376.551.6.8.355.117.721.184 1.1.2a.945.945 0 01.25.15c.219.702.702.985 1.45.85.19.181.357.381.5.6.1.067.2.067.3 0 .082-1.042.132-2.092.15-3.15.105-.363.355-.546.75-.55.07-.107.12-.223.15-.35.014-1.138.081-2.27.2-3.4.295-.09.562-.223.8-.4a41.9 41.9 0 01.2-3.4c.23-.222.497-.388.8-.5.019-.625.069-1.242.15-1.85.5-.067 1-.067 1.5 0l.7.9c.218.016.4.1.55.25.104.504.404.804.9.9l.4.8c.173.075.357.125.55.15.163.275.313.559.45.85.173.075.357.125.55.15.168.269.318.552.45.85.53.063.83.363.9.9.188.152.405.252.65.3.145.217.262.45.35.7.188.152.405.252.65.3.145.217.262.45.35.7.188.152.405.252.65.3.145.217.262.45.35.7.414.147.697.43.85.85.1.067.2.067.3 0l.75-1.15c.026-.446.11-.879.25-1.3.205-.152.438-.235.7-.25a1.15 1.15 0 00.1-1.1c.057-.607.39-.924 1-.95.192-.322.225-.656.1-1 .167-.367.433-.633.8-.8a3.33 3.33 0 00.3-.85l.65-.65c.112-.466.229-.933.35-1.4.214-.137.447-.237.7-.3.094-.427.127-.86.1-1.3zm-23 63.1c-.18-.08-.38-.13-.6-.15a26.495 26.495 0 00-2.3-.05 2.125 2.125 0 00-1.4.05.698.698 0 00-.25.35l-.15 1.65c0 3.48.016 6.964.05 10.45a2.11 2.11 0 01-.55.95c-1.34.914-2.806 1.247-4.4 1a1.784 1.784 0 01-.45-.55 5.463 5.463 0 00-.65-2.3.493.493 0 01.1-.25 3.542 3.542 0 011.8.2c1.268.249 1.868-.268 1.8-1.55-.11-2.274-.11-4.54 0-6.8-.12-.337-.37-.504-.75-.5a.338.338 0 00-.25.1.46.46 0 00-.45.2 6.613 6.613 0 01-1.4 2.5 28.227 28.227 0 00-1.95 2.05 155.111 155.111 0 01-4.3 3.1c-.536.223-1.086.407-1.65.55a9.916 9.916 0 00-1.85-1.45.416.416 0 01-.05-.45l.55-.55a19.14 19.14 0 011.8-.7 28.828 28.828 0 006.1-5.3c.716-.332 1.149-.882 1.3-1.65.501-1 .201-1.333-.9-1-.505.034-1.005.1-1.5.2a29.154 29.154 0 00-3.2.2c-.602.038-1.202.105-1.8.2a.987.987 0 01-.65-.2 6.44 6.44 0 01-.1-2.2.698.698 0 01.25-.35c3.129.11 6.262.193 9.4.25.581.07.965-.164 1.15-.7a27.45 27.45 0 00-.1-4.1c.078-.378.311-.578.7-.6.514.07 1.03.12 1.55.15.369.287.535.67.5 1.15a20.648 20.648 0 00-.05 3.3c.157.514.507.748 1.05.7 1.368-.09 2.718-.29 4.05-.6.19.011.356.078.5.2a3.4 3.4 0 01.2 2.1.469.469 0 01-.35.35c-.265.05-.531.066-.8.05zm68.8-6.4c.17-.016.337 0 .5.05.551.325 1.118.625 1.7.9.353.27.47.62.35 1.05a43.51 43.51 0 00-1.6 2.3 17.712 17.712 0 01-1.5 2.7 4.842 4.842 0 00-1.45 1.85c.121.497.354.93.7 1.3a13.95 13.95 0 012.85 1.95c.2.367.2.733 0 1.1a6.47 6.47 0 00-1.25 1.45.425.425 0 01-.4 0 3291.84 3291.84 0 00-3.4-3c-.498-.076-.882.107-1.15.55a17.089 17.089 0 01-2 2.4 64.89 64.89 0 01-6.75 5.35.921.921 0 01-.9-.2 4.042 4.042 0 00-1.45-1.15 1.029 1.029 0 01-.1-.8c.502-.193 1.018-.36 1.55-.5.148-.198.315-.382.5-.55.735-.47 1.469-.936 2.2-1.4a181.27 181.27 0 005.25-4.95c.349-.438.332-.855-.05-1.25a10.594 10.594 0 01-3.1-1.9 14.158 14.158 0 00-1.1-.4c-.263-.323-.246-.64.05-.95l1.25-1.05a.65.65 0 01.5 0l2.8 1.8c.778 1.24 1.595 1.256 2.45.05a6.91 6.91 0 00.9-1.7l.4-.4a6.33 6.33 0 011.1-2.1 5.39 5.39 0 011.15-2.5zM61 61.9c.17-1.028-.263-1.395-1.3-1.1h-.2a43.457 43.457 0 01-3.6.2c-1.094.032-2.16.166-3.2.4-.337.045-.67.112-1 .2-.307.005-.524-.128-.65-.4a8.456 8.456 0 01.1-2.5c.29-.273.64-.373 1.05-.3a.88.88 0 00.4.15l2.95.05c1.403.02 2.787-.047 4.15-.2 1.173-.04 2.34-.124 3.5-.25.521.52 1.105.97 1.75 1.35.07.343.037.676-.1 1a6.478 6.478 0 01-.8 1.1l-.3 1a94.537 94.537 0 01-2.2 3.5c-1.35 1.055-1.2 1.872.45 2.45a44.729 44.729 0 016.55 5.75.462.462 0 01-.1.4l-1.95 1.95a.25.25 0 01-.3 0l-.75-.95c-1.953-1.997-3.903-3.98-5.85-5.95-.408-.166-.808-.133-1.2.1a19.112 19.112 0 01-2.7 3c-1.13.896-2.23 1.83-3.3 2.8-.7.541-1.45.991-2.25 1.35a2.132 2.132 0 01-1.35-1.05 2.3 2.3 0 01-.9-.7.952.952 0 01.4-.7c.495-.182.995-.349 1.5-.5a5.112 5.112 0 011.7-1.3c3.711-2.724 6.695-6.074 8.95-10.05.208-.257.391-.523.55-.8zm24-.8c.007-.153-.06-.253-.2-.3a2.26 2.26 0 00-1.3 0 38.53 38.53 0 01-3.5.2 21.26 21.26 0 00-2.9.3c-.451.09-.901.19-1.35.3a.56.56 0 01-.6-.3 5.377 5.377 0 010-2.5c.173-.342.457-.509.85-.5.206.128.44.211.7.25l2.95.05c1.37.021 2.72-.046 4.05-.2a47.26 47.26 0 003.5-.25l1.75 1.35c.069.797-.198 1.464-.8 2l-.5 1.3a84.547 84.547 0 01-2.1 3.3 2.996 2.996 0 01-.7.6c-.21.428-.194.845.05 1.25.83.449 1.63.949 2.4 1.5a65.216 65.216 0 015.25 4.85c.067.1.067.2 0 .3l-2.05 2.05a.462.462 0 01-.4-.1l-.65-.85a153.421 153.421 0 01-5.65-5.8c-.447-.37-.914-.386-1.4-.05a53.894 53.894 0 01-1.35 1.75 17.97 17.97 0 00-1.65 1.55l-4.4 3.5c-.408.304-.841.371-1.3.2a18.077 18.077 0 00-1.75-1.45c-.036-.336.08-.619.35-.85.495-.182.995-.349 1.5-.5l.7-.7c.694-.394 1.36-.827 2-1.3a66.74 66.74 0 004.45-4.25 70.267 70.267 0 004.1-5.8c.08-.32.064-.62-.05-.9z" fill="#00c2ca" fill-opacity=".95"/></svg>